<?xml version="1.0" standalone="no"?>
<!DOCTYPE svg PUBLIC "-//W3C//DTD SVG 20010904//EN"
 "http://www.w3.org/TR/2001/REC-SVG-20010904/DTD/svg10.dtd">
<svg version="1.0" xmlns="http://www.w3.org/2000/svg"
 width="120.000000pt" height="120.000000pt" viewBox="0 0 120.000000 120.000000"
 preserveAspectRatio="xMidYMid meet">
<metadata>
Created by potrace 1.14, written by Peter Selinger 2001-2017
</metadata>
<g transform="translate(0.000000,120.000000) scale(0.100000,-0.100000)"
fill="#000000" stroke="none">
<path d="M567 1134 c-2 -2 -17 -6 -33 -8 -62 -8 -153 -51 -182 -86 -48 -58
-81 -252 -58 -350 1 -8 6 -26 9 -40 9 -32 16 -120 10 -120 -6 0 -191 385 -198
413 -3 12 -14 33 -24 46 -17 23 -21 23 -50 11 -17 -7 -31 -17 -31 -22 0 -17
73 -181 151 -338 67 -135 75 -157 62 -167 -19 -15 -10 -45 12 -37 8 4 22 1 30
-6 21 -17 19 -33 -3 -22 -29 15 -84 9 -96 -11 -8 -13 -7 -24 4 -45 15 -26 15
-28 -14 -47 -32 -21 -37 -30 -80 -130 -23 -55 -35 -89 -37 -107 0 -4 -4 -21
-9 -38 l-9 -30 579 0 580 0 -7 33 c-7 40 -42 135 -59 162 -6 11 -15 34 -18 50
-5 21 -22 41 -60 68 -30 20 -59 37 -65 37 -6 0 -17 13 -25 29 -15 27 -67 56
-80 44 -14 -14 -4 56 13 94 23 50 34 136 33 268 -1 205 -37 272 -174 323 -52
19 -161 36 -171 26z"/>
</g>
</svg>
