<svg xmlns="http://www.w3.org/2000/svg" width="156.82" height="35" viewBox="0 0 156.82 35"><rect class="svg__rect" x="0" y="0" width="101.63" height="35" fill="#FFFFFF"/><rect class="svg__rect" x="99.63" y="0" width="57.18999999999998" height="35" fill="#000000"/><path class="svg__text" d="M15.70 22L14.22 22L14.22 13.47L17.22 13.47Q18.69 13.47 19.50 14.13Q20.30 14.79 20.30 16.05L20.30 16.05Q20.30 16.90 19.89 17.48Q19.47 18.06 18.73 18.37L18.73 18.37L20.65 21.92L20.65 22L19.06 22L17.35 18.71L15.70 18.71L15.70 22ZM15.70 14.66L15.70 17.52L17.22 17.52Q17.97 17.52 18.39 17.15Q18.82 16.77 18.82 16.11L18.82 16.11Q18.82 15.43 18.43 15.05Q18.04 14.68 17.26 14.66L17.26 14.66L15.70 14.66ZM30.27 22L24.69 22L24.69 13.47L30.23 13.47L30.23 14.66L26.18 14.66L26.18 17.02L29.68 17.02L29.68 18.19L26.18 18.19L26.18 20.82L30.27 20.82L30.27 22ZM36.92 22L34.47 22L34.47 13.47L36.99 13.47Q38.12 13.47 38.99 13.97Q39.87 14.48 40.35 15.40Q40.83 16.33 40.83 17.52L40.83 17.52L40.83 17.95Q40.83 19.16 40.35 20.08Q39.86 21.00 38.97 21.50Q38.08 22 36.92 22L36.92 22ZM35.95 14.66L35.95 20.82L36.92 20.82Q38.08 20.82 38.71 20.09Q39.33 19.36 39.34 17.99L39.34 17.99L39.34 17.52Q39.34 16.13 38.74 15.40Q38.14 14.66 36.99 14.66L36.99 14.66L35.95 14.66ZM46.98 14.66L44.34 14.66L44.34 13.47L51.11 13.47L51.11 14.66L48.45 14.66L48.45 22L46.98 22L46.98 14.66ZM56.35 22L54.86 22L54.86 13.47L57.86 13.47Q59.34 13.47 60.14 14.13Q60.95 14.79 60.95 16.05L60.95 16.05Q60.95 16.90 60.53 17.48Q60.12 18.06 59.38 18.37L59.38 18.37L61.30 21.92L61.30 22L59.71 22L58.00 18.71L56.35 18.71L56.35 22ZM56.35 14.66L56.35 17.52L57.87 17.52Q58.62 17.52 59.04 17.15Q59.46 16.77 59.46 16.11L59.46 16.11Q59.46 15.43 59.07 15.05Q58.68 14.68 57.91 14.66L57.91 14.66L56.35 14.66ZM66.90 22L65.43 22L65.43 13.47L66.90 13.47L66.90 22ZM74.83 22L71.72 22L71.72 13.47L74.64 13.47Q76.09 13.47 76.84 14.05Q77.60 14.63 77.60 15.78L77.60 15.78Q77.60 16.36 77.28 16.83Q76.97 17.30 76.36 17.56L76.36 17.56Q77.05 17.75 77.43 18.26Q77.80 18.78 77.80 19.51L77.80 19.51Q77.80 20.71 77.03 21.36Q76.26 22 74.83 22L74.83 22ZM73.20 18.15L73.20 20.82L74.84 20.82Q75.54 20.82 75.93 20.47Q76.33 20.13 76.33 19.51L76.33 19.51Q76.33 18.18 74.97 18.15L74.97 18.15L73.20 18.15ZM73.20 14.66L73.20 17.06L74.65 17.06Q75.34 17.06 75.73 16.75Q76.12 16.43 76.12 15.86L76.12 15.86Q76.12 15.23 75.76 14.95Q75.40 14.66 74.64 14.66L74.64 14.66L73.20 14.66ZM87.85 22L82.27 22L82.27 13.47L87.81 13.47L87.81 14.66L83.76 14.66L83.76 17.02L87.26 17.02L87.26 18.19L83.76 18.19L83.76 20.82L87.85 20.82L87.85 22Z" fill="#FF0000"/><path class="svg__text" d="M113.23 21.24L113.23 21.24L114.01 19.49Q114.57 19.86 115.32 20.09Q116.06 20.32 116.78 20.32L116.78 20.32Q118.15 20.32 118.15 19.64L118.15 19.64Q118.15 19.28 117.76 19.11Q117.37 18.93 116.51 18.74L116.51 18.74Q115.56 18.53 114.92 18.30Q114.29 18.06 113.83 17.55Q113.38 17.03 113.38 16.16L113.38 16.16Q113.38 15.39 113.80 14.77Q114.22 14.15 115.05 13.79Q115.89 13.43 117.09 13.43L117.09 13.43Q117.92 13.43 118.73 13.62Q119.53 13.80 120.15 14.17L120.15 14.17L119.41 15.93Q118.21 15.28 117.08 15.28L117.08 15.28Q116.37 15.28 116.05 15.49Q115.73 15.70 115.73 16.04L115.73 16.04Q115.73 16.37 116.11 16.54Q116.50 16.71 117.35 16.89L117.35 16.89Q118.31 17.10 118.94 17.33Q119.57 17.56 120.03 18.07Q120.49 18.58 120.49 19.46L120.49 19.46Q120.49 20.21 120.07 20.83Q119.65 21.44 118.81 21.80Q117.97 22.17 116.77 22.17L116.77 22.17Q115.75 22.17 114.79 21.92Q113.83 21.67 113.23 21.24ZM131.81 22L125.07 22L125.07 13.60L131.66 13.60L131.66 15.44L127.42 15.44L127.42 16.85L131.16 16.85L131.16 18.63L127.42 18.63L127.42 20.17L131.81 20.17L131.81 22ZM136.19 17.80L136.19 17.80Q136.19 16.54 136.79 15.54Q137.38 14.55 138.44 13.99Q139.49 13.43 140.81 13.43L140.81 13.43Q141.96 13.43 142.88 13.84Q143.81 14.25 144.42 15.02L144.42 15.02L142.91 16.39Q142.10 15.40 140.93 15.40L140.93 15.40Q140.24 15.40 139.71 15.70Q139.18 16 138.88 16.54Q138.59 17.09 138.59 17.80L138.59 17.80Q138.59 18.51 138.88 19.05Q139.18 19.60 139.71 19.90Q140.24 20.20 140.93 20.20L140.93 20.20Q142.10 20.20 142.91 19.22L142.91 19.22L144.42 20.58Q143.81 21.35 142.89 21.76Q141.96 22.17 140.81 22.17L140.81 22.17Q139.49 22.17 138.44 21.61Q137.38 21.05 136.79 20.05Q136.19 19.06 136.19 17.80Z" fill="#FFFFFF" x="112.63"/></svg>